<svg version="1.1" id="Layer_1" xmlns="http://www.w3.org/2000/svg" xmlns:xlink="http://www.w3.org/1999/xlink" x="0px" y="0px"
	 width="100%" viewBox="0 0 200 200" enable-background="new 0 0 200 200" xml:space="preserve">
<path fill="#78F4B5" opacity="1.000000" stroke="none" 
	d="
M123.000000,201.000000 
	C82.025322,201.000000 41.550652,201.000000 1.037988,201.000000 
	C1.037988,134.400360 1.037988,67.800705 1.037988,1.100519 
	C67.557831,1.100519 134.115875,1.100519 200.836945,1.100519 
	C200.836945,67.666344 200.836945,134.333145 200.836945,201.000000 
	C175.134323,201.000000 149.317154,201.000000 123.000000,201.000000 
M156.546234,118.344566 
	C165.274261,115.086296 171.782593,109.467133 174.646805,100.414017 
	C177.761551,90.568985 178.105499,80.475327 176.166016,70.352219 
	C175.890060,68.911873 174.698486,66.594696 173.839523,66.552811 
	C172.370514,66.481178 170.458862,67.551598 169.383957,68.734024 
	C165.174271,73.364792 160.262344,76.407089 153.674423,76.153633 
	C146.835449,62.353584 136.668289,52.168770 121.778824,46.020321 
	C121.763901,37.705944 121.774414,29.391403 121.720428,21.077280 
	C121.701225,18.119696 121.346687,15.010425 117.513710,14.930032 
	C113.497459,14.845796 112.813950,17.868910 112.790245,21.142670 
	C112.734879,28.788626 112.663666,36.434467 111.895134,43.951206 
	C109.969521,43.657066 108.043915,43.362930 105.989349,42.130554 
	C105.975761,34.990768 105.987381,27.850807 105.937241,20.711279 
	C105.914383,17.456707 105.068954,14.414904 101.140289,14.516783 
	C97.429115,14.613021 96.949127,17.558455 96.953583,20.643736 
	C96.964371,28.113052 96.873657,35.582516 96.016373,43.039890 
	C94.135597,43.156780 92.254822,43.273670 90.161591,42.424946 
	C90.124496,35.127705 90.068420,27.830490 90.058990,20.533215 
	C90.054802,17.292618 89.530060,14.185366 85.516777,14.197603 
	C81.533180,14.209749 80.977737,17.254076 80.983070,20.535286 
	C80.997360,29.323309 80.923958,38.111477 80.136665,46.974133 
	C66.207550,51.819359 56.177635,61.044502 48.853539,74.152184 
	C43.463730,72.055992 37.949387,70.226807 32.719555,67.787613 
	C27.610662,65.404831 26.064659,65.672653 25.492895,71.321083 
	C24.877399,77.401497 24.686859,83.616066 25.188055,89.699837 
	C26.311483,103.336533 32.504040,113.654640 45.955864,119.383049 
	C46.541229,121.095840 46.963074,122.886635 47.737164,124.509399 
	C55.804241,141.420914 68.276070,153.058868 87.501534,157.661743 
	C89.069717,164.236084 91.087936,170.743408 92.079636,177.403595 
	C93.073509,184.078293 95.982056,187.914108 101.597015,187.926224 
	C107.228813,187.938370 110.154465,184.037872 111.236870,177.499405 
	C112.386536,170.554672 114.693329,163.801483 117.288719,156.807358 
	C136.632584,150.686981 150.048859,138.524338 156.546234,118.344566 
z"/>
<path fill="#0F827B" opacity="1.000000" stroke="none" 
	d="
M45.967567,118.570610 
	C32.504040,113.654640 26.311483,103.336533 25.188055,89.699837 
	C24.686859,83.616066 24.877399,77.401497 25.492895,71.321083 
	C26.064659,65.672653 27.610662,65.404831 32.719555,67.787613 
	C37.949387,70.226807 43.463730,72.055992 49.520996,74.391373 
	C68.318558,80.559074 73.793037,89.978592 70.150665,108.761452 
	C69.892448,110.093063 69.866104,111.977043 70.605652,112.916100 
	C77.845299,122.108841 85.270699,131.155289 92.371338,139.908112 
	C92.371338,124.102867 92.530869,107.361252 92.138489,90.632584 
	C92.096649,88.849007 88.973976,85.864647 87.030525,85.644531 
	C81.821129,85.054527 80.896187,82.360413 80.960480,77.887642 
	C81.108917,67.560776 80.930962,57.229233 80.885399,46.899586 
	C80.923958,38.111477 80.997360,29.323309 80.983070,20.535286 
	C80.977737,17.254076 81.533180,14.209749 85.516777,14.197603 
	C89.530060,14.185366 90.054802,17.292618 90.058990,20.533215 
	C90.068420,27.830490 90.124496,35.127705 90.146561,43.328114 
	C90.097847,49.700928 89.781647,55.192024 90.194420,60.627766 
	C90.326416,62.365955 92.389275,63.957516 93.568680,65.616165 
	C94.711945,63.893986 96.723610,62.227596 96.838501,60.439342 
	C97.209328,54.667675 96.882065,48.851151 96.823860,43.051918 
	C96.873657,35.582516 96.964371,28.113052 96.953583,20.643736 
	C96.949127,17.558455 97.429115,14.613021 101.140289,14.516783 
	C105.068954,14.414904 105.914383,17.456707 105.937241,20.711279 
	C105.987381,27.850807 105.975761,34.990768 105.984772,43.060059 
	C105.965683,49.629364 105.708206,55.285633 106.088829,60.898636 
	C106.199066,62.524254 108.139305,64.025772 109.240616,65.584183 
	C110.411758,64.052963 112.485497,62.581146 112.590889,60.979794 
	C112.960014,55.370766 112.650597,49.717083 112.598869,44.080357 
	C112.663666,36.434467 112.734879,28.788626 112.790245,21.142670 
	C112.813950,17.868910 113.497459,14.845796 117.513710,14.930032 
	C121.346687,15.010425 121.701225,18.119696 121.720428,21.077280 
	C121.774414,29.391403 121.763901,37.705944 121.744797,46.940273 
	C121.689957,58.349537 121.653297,68.838860 121.658150,79.328156 
	C121.659576,82.414658 121.113579,85.023537 117.374359,85.487846 
	C112.587570,86.082237 111.147598,89.164345 111.168686,93.568451 
	C111.234093,107.221481 111.192169,120.875023 111.191917,134.528366 
	C111.191872,136.898346 111.191910,139.268341 111.191910,141.456757 
	C117.481567,133.187241 123.350128,124.956642 129.823318,117.232750 
	C132.168442,114.434502 132.254990,112.213821 131.916656,108.869179 
	C131.311081,102.882797 130.569199,96.459641 132.081314,90.806747 
	C134.918304,80.200905 144.036026,77.473885 153.898575,76.782013 
	C160.262344,76.407089 165.174271,73.364792 169.383957,68.734024 
	C170.458862,67.551598 172.370514,66.481178 173.839523,66.552811 
	C174.698486,66.594696 175.890060,68.911873 176.166016,70.352219 
	C178.105499,80.475327 177.761551,90.568985 174.646805,100.414017 
	C171.782593,109.467133 165.274261,115.086296 155.861816,118.588005 
	C150.907867,118.966896 146.627319,118.966713 142.374878,119.312271 
	C140.910019,119.431313 139.053802,120.017014 138.159592,121.060631 
	C128.948578,131.810532 121.536247,143.681580 116.494827,156.964661 
	C114.693329,163.801483 112.386536,170.554672 111.236870,177.499405 
	C110.154465,184.037872 107.228813,187.938370 101.597015,187.926224 
	C95.982056,187.914108 93.073509,184.078293 92.079636,177.403595 
	C91.087936,170.743408 89.069717,164.236084 87.232040,157.011993 
	C80.339836,145.162567 73.718506,133.962067 67.093559,122.763702 
	C65.064514,119.333931 62.150196,118.727875 58.275982,119.106812 
	C54.229370,119.502602 50.074890,118.795547 45.967567,118.570610 
z"/>
<path fill="#F8FCFB" opacity="1.000000" stroke="none" 
	d="
M80.511032,46.936859 
	C80.930962,57.229233 81.108917,67.560776 80.960480,77.887642 
	C80.896187,82.360413 81.821129,85.054527 87.030525,85.644531 
	C88.973976,85.864647 92.096649,88.849007 92.138489,90.632584 
	C92.530869,107.361252 92.371338,124.102867 92.371338,139.908112 
	C85.270699,131.155289 77.845299,122.108841 70.605652,112.916100 
	C69.866104,111.977043 69.892448,110.093063 70.150665,108.761452 
	C73.793037,89.978592 68.318558,80.559074 49.897133,74.392319 
	C56.177635,61.044502 66.207550,51.819359 80.511032,46.936859 
z"/>
<path fill="#FAFDFC" opacity="1.000000" stroke="none" 
	d="
M153.786499,76.467819 
	C144.036026,77.473885 134.918304,80.200905 132.081314,90.806747 
	C130.569199,96.459641 131.311081,102.882797 131.916656,108.869179 
	C132.254990,112.213821 132.168442,114.434502 129.823318,117.232750 
	C123.350128,124.956642 117.481567,133.187241 111.191910,141.456757 
	C111.191910,139.268341 111.191872,136.898346 111.191917,134.528366 
	C111.192169,120.875023 111.234093,107.221481 111.168686,93.568451 
	C111.147598,89.164345 112.587570,86.082237 117.374359,85.487846 
	C121.113579,85.023537 121.659576,82.414658 121.658150,79.328156 
	C121.653297,68.838860 121.689957,58.349537 121.825256,47.399498 
	C136.668289,52.168770 146.835449,62.353584 153.786499,76.467819 
z"/>
<path fill="#FAFDFC" opacity="1.000000" stroke="none" 
	d="
M45.961716,118.976830 
	C50.074890,118.795547 54.229370,119.502602 58.275982,119.106812 
	C62.150196,118.727875 65.064514,119.333931 67.093559,122.763702 
	C73.718506,133.962067 80.339836,145.162567 86.995926,156.734192 
	C68.276070,153.058868 55.804241,141.420914 47.737164,124.509399 
	C46.963074,122.886635 46.541229,121.095840 45.961716,118.976830 
z"/>
<path fill="#FAFDFC" opacity="1.000000" stroke="none" 
	d="
M116.891777,156.886017 
	C121.536247,143.681580 128.948578,131.810532 138.159592,121.060631 
	C139.053802,120.017014 140.910019,119.431313 142.374878,119.312271 
	C146.627319,118.966713 150.907867,118.966896 155.608337,118.811813 
	C150.048859,138.524338 136.632584,150.686981 116.891777,156.886017 
z"/>
<path fill="#F3FAF9" opacity="1.000000" stroke="none" 
	d="
M96.420120,43.045906 
	C96.882065,48.851151 97.209328,54.667675 96.838501,60.439342 
	C96.723610,62.227596 94.711945,63.893986 93.568680,65.616165 
	C92.389275,63.957516 90.326416,62.365955 90.194420,60.627766 
	C89.781647,55.192024 90.097847,49.700928 90.252792,43.810921 
	C92.254822,43.273670 94.135597,43.156780 96.420120,43.045906 
z"/>
<path fill="#FBFDFD" opacity="1.000000" stroke="none" 
	d="
M112.247002,44.015781 
	C112.650597,49.717083 112.960014,55.370766 112.590889,60.979794 
	C112.485497,62.581146 110.411758,64.052963 109.240616,65.584183 
	C108.139305,64.025772 106.199066,62.524254 106.088829,60.898636 
	C105.708206,55.285633 105.965683,49.629364 106.049240,43.529179 
	C108.043915,43.362930 109.969521,43.657066 112.247002,44.015781 
z"/>
</svg>